<svg xmlns="http://www.w3.org/2000/svg" viewBox="0 0 100 100" width="100" height="100">
  <!-- Cercle anarchiste -->
  <circle cx="50" cy="50" r="45" fill="#000" stroke="#ff0000" stroke-width="3"/>
  
  <!-- Symbole A anarchiste -->
  <path d="M30 75 L50 25 L70 75 M35 60 L65 60" stroke="#ff0000" stroke-width="4" fill="none"/>
  
  <!-- Cercle du A -->
  <circle cx="50" cy="50" r="35" fill="none" stroke="#ff0000" stroke-width="3"/>
  
  <!-- Étoiles révolutionnaires -->
  <polygon points="20,20 22,26 28,26 23,30 25,36 20,32 15,36 17,30 12,26 18,26" fill="#ff0000"/>
  <polygon points="80,20 82,26 88,26 83,30 85,36 80,32 75,36 77,30 72,26 78,26" fill="#ff0000"/>
  
  <!-- Chat bubble -->
  <circle cx="75" cy="75" r="8" fill="#ff0000"/>
  <path d="M75 83 L72 88 L78 85 Z" fill="#ff0000"/>
</svg>